# xmcd
#
# Track frame offsets: 
#        150
#        16486
#        40723
#        52883
#        71321
#        99862
#        129956
#        146228
#        165344
#        181503
#        204789
#        218457
#
# Disc length: 3152 seconds
#
# Revision: 0
# Processed by: cddbd v1.5.2PL0 Copyright (c) Steve Scherf et al.
# Submitted via: ExactAudioCopy v0.99pb3
#
DISCID=890c4e0c
DTITLE=Dan Lawson Band - The Dan Lawson Band
DYEAR=2007
DGENRE=Blues
TTITLE0=Play The Blues
TTITLE1=Just Ain't Easy
TTITLE2=Road Kill
TTITLE3=Yo Mama
TTITLE4=Miss Me
TTITLE5=Story Of The Blues
TTITLE6=Outway Street
TTITLE7=Shuffle Dog
TTITLE8=Let's Ride
TTITLE9=Wear It Well
TTITLE10=In The Nick Of Time
TTITLE11=Time Machine
EXTD=
EXTT0=
EXTT1=
EXTT2=
EXTT3=
EXTT4=
EXTT5=
EXTT6=
EXTT7=
EXTT8=
EXTT9=
EXTT10=
EXTT11=
PLAYORDER=
